# xmcd
#
# Track frame offsets: 
#        150
#        11749
#        20339
#        33258
#        45874
#        56860
#        70538
#        82398
#        96052
#        104123
#        114391
#        125077
#        138393
#        150591
#        161413
#        173635
#
# Disc length: 2465 seconds
#
# Revision: 0
# Processed by: cddbd v1.5.2PL0 Copyright (c) Steve Scherf et al.
# Submitted via: ExactAudioCopyFreeDBPlugin 1.0
#
DISCID=ce099f10
DTITLE=Various Artist - So Doggone Lonesome
DYEAR=2012
DGENRE=Country
TTITLE0=Johnny Cash - So Doggone Lonesome
TTITLE1=Don Gibson - Blue Blue Day
TTITLE2=Ernest Tubb - Have You Been Lonely
TTITLE3=Tex Ritter - High Noon
TTITLE4=Jim Reeves - Penny Candy
TTITLE5=Slim Whitman - Indian Love Call
TTITLE6=Tennessee Ernie Ford - Sixteen Tons
TTITLE7=Bobby Bare - All American Boy
TTITLE8=Johnny Cash - Country Boy
TTITLE9=George Jones - Why Baby Why
TTITLE10=Faron Young - Foolish Heart
TTITLE11=Hank Williams - Hey Good Lookin'
TTITLE12=Ray Price - Talk To Your Heart
TTITLE13=Johnny Horton - All For The Love A Girl
TTITLE14=George Jones - Just One More
TTITLE15=Hank Snow - A Fool Such As I
EXTD=
EXTT0=
EXTT1=
EXTT2=
EXTT3=
EXTT4=
EXTT5=
EXTT6=
EXTT7=
EXTT8=
EXTT9=
EXTT10=
EXTT11=
EXTT12=
EXTT13=
EXTT14=
EXTT15=
PLAYORDER=
